<svg width="19" height="22" viewBox="0 0 19 22" fill="none" xmlns="http://www.w3.org/2000/svg">
<path d="M18.264 11.586C17.8771 11.2111 17.3523 11.0004 16.8052 11.0004C16.2581 11.0004 15.7334 11.2111 15.3464 11.586L11.6469 15.172V2C11.6469 1.46957 11.4295 0.960859 11.0426 0.585787C10.6556 0.210714 10.1308 0 9.58358 0C9.03635 0 8.51154 0.210714 8.12459 0.585787C7.73764 0.960859 7.52026 1.46957 7.52026 2V15.172L3.82071 11.586C3.43157 11.2217 2.91037 11.0201 2.36937 11.0247C1.82837 11.0292 1.31087 11.2395 0.928308 11.6104C0.545751 11.9812 0.328754 12.4828 0.324053 13.0072C0.319351 13.5316 0.527323 14.0368 0.903174 14.414L8.12481 21.414C8.51174 21.7889 9.03646 21.9996 9.58358 21.9996C10.1307 21.9996 10.6554 21.7889 11.0423 21.414L18.264 14.414C18.6508 14.0389 18.8681 13.5303 18.8681 13C18.8681 12.4697 18.6508 11.9611 18.264 11.586Z" fill="#464255"/>
</svg>
