<svg width="19" height="22" viewBox="0 0 19 22" fill="none" xmlns="http://www.w3.org/2000/svg">
<path d="M18.264 7.58606L11.0423 0.586061C10.6554 0.211119 10.1307 0.000488281 9.58358 0.000488281C9.03646 0.000488281 8.51174 0.211119 8.12481 0.586061L0.903174 7.58606C0.527323 7.96327 0.319351 8.46847 0.324053 8.99286C0.328754 9.51726 0.545751 10.0189 0.928308 10.3897C1.31087 10.7605 1.82837 10.9709 2.36937 10.9754C2.91037 10.98 3.43157 10.7784 3.82071 10.4141L7.52026 6.82806V20.0001C7.52026 20.5305 7.73764 21.0392 8.12459 21.4143C8.51154 21.7893 9.03635 22.0001 9.58358 22.0001C10.1308 22.0001 10.6556 21.7893 11.0426 21.4143C11.4295 21.0392 11.6469 20.5305 11.6469 20.0001V6.82806L15.3464 10.4141C15.7356 10.7784 16.2568 10.98 16.7978 10.9754C17.3388 10.9709 17.8563 10.7605 18.2389 10.3897C18.6214 10.0189 18.8384 9.51726 18.8431 8.99286C18.8478 8.46847 18.6398 7.96327 18.264 7.58606Z" fill="#464255"/>
</svg>
